<svg width="481" height="43" viewBox="0 0 481 43" fill="none" xmlns="http://www.w3.org/2000/svg">
<path d="M23.3815 4.74483V0.593103H0V4.74483H9.3055V38.2552H0V42.4069H23.3815V38.2552H14.1349V4.74483H23.3815Z" fill="#1B1B1B"/>
<path d="M30.7269 42.4069H35.5564V5.45655L34.7907 1.95724H36.1453L48.0422 42.4069H57.76L69.6569 1.95724H71.0704L70.2458 5.45655V42.4069H75.0753V0.593103H65.4164L53.5784 41.0428H52.2238L40.4447 0.593103H30.7269V42.4069Z" fill="#1B1B1B"/>
<path d="M112.689 42.4069H117.459L104.09 0.593103H94.1956L80.7675 42.4069H85.5969L90.7797 26.0372H107.447L112.689 42.4069ZM92.1343 21.8855L98.4361 1.95724H99.7907L106.151 21.8855H92.1343Z" fill="#1B1B1B"/>
<path d="M119.689 21.4703C119.689 33.8069 125.696 43 137.888 43C148.607 43 154.202 36.0607 154.261 21.4703H155.615L154.85 26.8083V42.4069H159.679V23.3683C159.679 21.1738 158.56 20.1062 156.145 20.1062H135.65V24.0207H149.844C150.02 34.0441 146.133 38.8483 137.947 38.8483C128.229 38.8483 124.519 31.731 124.519 21.4703C124.519 11.269 129.584 4.15172 139.301 4.15172C147.488 4.15172 150.963 8.65931 151.905 15.5393H156.734C155.498 6.40552 149.726 0 139.301 0C127.287 0 119.689 9.19311 119.689 21.4703Z" fill="#1B1B1B"/>
<path d="M166.405 42.4069H192.143V38.2552H171.235V23.5462H189.198V19.3945H171.235V4.74483H192.143V0.593103H166.405V42.4069Z" fill="#1B1B1B"/>
<path d="M199.016 42.4069H203.846V5.45655L203.08 1.95724H204.435L225.107 42.4069H234.825V0.593103H230.054V37.5434L230.82 41.0428H229.465L208.734 0.593103H199.016V42.4069Z" fill="#1B1B1B"/>
<path d="M276.285 31.8497C276.285 23.131 266.861 20.8772 258.734 18.3269C251.902 16.1917 248.25 14.5903 248.25 10.2014C248.25 5.57517 252.432 4.15172 258.145 4.15172C264.505 4.15172 269.747 7.23586 269.747 14.3531H274.577C274.577 7.53242 270.395 0 258.145 0C247.897 0 243.421 3.91448 243.421 10.32C243.421 17.7338 249.369 19.9876 257.556 22.4786C264.152 24.4359 271.455 25.7407 271.455 32.0869C271.455 37.1283 267.391 38.8483 260.324 38.8483C251.607 38.8483 246.366 36.6538 246.366 26.749H241.536C241.536 36.5352 245.836 43 260.324 43C272.574 43 276.285 38.0772 276.285 31.8497Z" fill="#1B1B1B"/>
<path d="M335.64 31.8497C335.64 23.131 326.217 20.8772 318.089 18.3269C311.257 16.1917 307.606 14.5903 307.606 10.2014C307.606 5.57517 311.788 4.15172 317.5 4.15172C323.861 4.15172 329.103 7.23586 329.103 14.3531H333.932C333.932 7.53242 329.751 0 317.5 0C307.253 0 302.777 3.91448 302.777 10.32C302.777 17.7338 308.725 19.9876 316.911 22.4786C323.508 24.4359 330.811 25.7407 330.811 32.0869C330.811 37.1283 326.747 38.8483 319.68 38.8483C310.963 38.8483 305.721 36.6538 305.721 26.749H300.892C300.892 36.5352 305.191 43 319.68 43C331.93 43 335.64 38.0772 335.64 31.8497Z" fill="#1B1B1B"/>
<path d="M371.674 0.593103V19.691H347.174V0.593103H342.344V42.4069H347.174V23.8428H371.674V42.4069H376.445V0.593103H371.674Z" fill="#1B1B1B"/>
<path d="M383.166 21.4703C383.166 33.6883 390.352 43 402.602 43C414.734 43 421.919 33.6883 421.919 21.4703C421.919 9.31172 414.734 0 402.602 0C390.352 0 383.166 9.31172 383.166 21.4703ZM387.996 21.4703C387.996 11.5062 392.766 4.15172 402.602 4.15172C412.378 4.15172 417.09 11.5062 417.09 21.4703C417.09 31.4938 412.378 38.8483 402.602 38.8483C392.766 38.8483 387.996 31.4938 387.996 21.4703Z" fill="#1B1B1B"/>
<path d="M425.226 0.593103L434.119 42.4069H443.955L452.436 1.95724H453.79L462.33 42.4069H472.166L481 0.593103H476.406L467.925 41.0428H466.512L458.09 0.593103H448.136L439.714 41.0428H438.301L429.82 0.593103H425.226Z" fill="#1B1B1B"/>
</svg>
