<svg width="473" height="47" viewBox="0 0 473 47" fill="none" xmlns="http://www.w3.org/2000/svg">
<path d="M0 46.0962V0.903846H5.53681V46.0962H0Z" fill="#353431"/>
<path d="M16.0924 46.0962V0.903846H26.6387L38.8988 42.6745H39.7557L52.0158 0.903846H62.5621V46.0962H57.223V4.45467H56.3002L44.106 46.0962H34.5484L22.3543 4.45467H21.4315V46.0962H16.0924Z" fill="#353431"/>
<path d="M69.4985 46.0962L83.7361 0.903846H93.4914L107.729 46.0962H101.994L98.435 34.669H78.7925L75.2331 46.0962H69.4985ZM80.1767 29.7624H96.9849L89.0751 4.19643H88.1523L80.1767 29.7624Z" fill="#353431"/>
<path d="M130.082 47C126.654 47 123.622 46.3114 120.985 44.9341C118.393 43.5137 116.349 41.4478 114.855 38.7363C113.405 36.0247 112.68 32.6676 112.68 28.6648V18.3352C112.68 12.3526 114.306 7.81181 117.558 4.71291C120.81 1.57097 125.182 0 130.675 0C136.124 0 140.276 1.46337 143.133 4.39011C145.989 7.31685 147.417 11.2335 147.417 16.1401V16.4629H141.946V16.011C141.946 13.859 141.551 11.9437 140.76 10.2651C139.969 8.58654 138.738 7.27381 137.069 6.32692C135.399 5.33699 133.267 4.84203 130.675 4.84203C126.764 4.84203 123.71 6.02564 121.513 8.39286C119.316 10.717 118.217 13.9881 118.217 18.206V28.794C118.217 33.0119 119.316 36.3045 121.513 38.6717C123.71 40.9959 126.786 42.158 130.741 42.158C134.608 42.158 137.442 41.082 139.244 38.9299C141.089 36.7779 142.012 33.9157 142.012 30.3434V29.2459H128.038V24.5975H147.417V46.0962H142.408V41.1896H141.485C141.001 42.1364 140.32 43.0618 139.441 43.9657C138.563 44.8695 137.376 45.6012 135.882 46.1607C134.388 46.7202 132.455 47 130.082 47Z" fill="#353431"/>
<path d="M157.512 46.0962V0.903846H185.921V5.81044H163.049V20.9176H184.076V25.8242H163.049V41.1896H186.251V46.0962H157.512Z" fill="#353431"/>
<path d="M194.654 46.0962V0.903846H205.398L221.481 42.6745H222.338V0.903846H227.809V46.0962H217.064L201.047 4.26099H200.124V46.0962H194.654Z" fill="#353431"/>
<path d="M253.783 47C250.443 47 247.455 46.419 244.819 45.2569C242.182 44.0948 240.095 42.3516 238.557 40.0275C237.063 37.6603 236.316 34.712 236.316 31.1827V29.8269H241.787V31.1827C241.787 34.9272 242.907 37.7248 245.148 39.5756C247.389 41.3832 250.268 42.2871 253.783 42.2871C257.386 42.2871 260.133 41.4908 262.022 39.8983C263.912 38.3059 264.857 36.3045 264.857 33.8942C264.857 32.2157 264.417 30.8814 263.538 29.8915C262.703 28.9016 261.517 28.1053 259.979 27.5027C258.441 26.8571 256.639 26.2976 254.574 25.8242L251.146 24.9849C248.466 24.2962 246.093 23.457 244.028 22.467C241.962 21.4771 240.336 20.1859 239.15 18.5934C238.007 16.9579 237.436 14.8704 237.436 12.331C237.436 9.79167 238.073 7.59661 239.348 5.74588C240.666 3.89515 242.49 2.47482 244.819 1.48489C247.192 0.494964 249.916 0 252.992 0C256.112 0 258.902 0.538005 261.363 1.61401C263.868 2.64698 265.823 4.19643 267.229 6.26236C268.68 8.28525 269.405 10.8462 269.405 13.9451V16.6566H263.934V13.9451C263.934 11.75 263.45 9.98535 262.484 8.6511C261.561 7.31685 260.265 6.32692 258.595 5.68132C256.969 5.03571 255.101 4.71291 252.992 4.71291C249.96 4.71291 247.521 5.38004 245.675 6.71429C243.83 8.00549 242.907 9.85623 242.907 12.2665C242.907 13.859 243.303 15.1502 244.094 16.1401C244.884 17.13 246.005 17.9478 247.455 18.5934C248.905 19.196 250.641 19.734 252.662 20.2074L256.09 21.0467C258.77 21.6062 261.165 22.381 263.275 23.3709C265.428 24.3178 267.142 25.6305 268.416 27.3091C269.69 28.9446 270.327 31.0966 270.327 33.7651C270.327 36.4336 269.646 38.7578 268.284 40.7376C266.922 42.7175 264.988 44.2669 262.484 45.386C260.023 46.462 257.123 47 253.783 47Z" fill="#353431"/>
<path d="M311.072 47C307.732 47 304.744 46.419 302.108 45.2569C299.471 44.0948 297.384 42.3516 295.846 40.0275C294.352 37.6603 293.605 34.712 293.605 31.1827V29.8269H299.075V31.1827C299.075 34.9272 300.196 37.7248 302.437 39.5756C304.678 41.3832 307.556 42.2871 311.072 42.2871C314.675 42.2871 317.422 41.4908 319.311 39.8983C321.201 38.3059 322.145 36.3045 322.145 33.8942C322.145 32.2157 321.706 30.8814 320.827 29.8915C319.992 28.9016 318.806 28.1053 317.268 27.5027C315.73 26.8571 313.928 26.2976 311.863 25.8242L308.435 24.9849C305.755 24.2962 303.382 23.457 301.317 22.467C299.251 21.4771 297.625 20.1859 296.439 18.5934C295.296 16.9579 294.725 14.8704 294.725 12.331C294.725 9.79167 295.362 7.59661 296.637 5.74588C297.955 3.89515 299.779 2.47482 302.108 1.48489C304.48 0.494964 307.205 0 310.281 0C313.401 0 316.191 0.538005 318.652 1.61401C321.157 2.64698 323.112 4.19643 324.518 6.26236C325.969 8.28525 326.694 10.8462 326.694 13.9451V16.6566H321.223V13.9451C321.223 11.75 320.739 9.98535 319.773 8.6511C318.85 7.31685 317.553 6.32692 315.884 5.68132C314.258 5.03571 312.39 4.71291 310.281 4.71291C307.249 4.71291 304.81 5.38004 302.964 6.71429C301.119 8.00549 300.196 9.85623 300.196 12.2665C300.196 13.859 300.591 15.1502 301.382 16.1401C302.173 17.13 303.294 17.9478 304.744 18.5934C306.194 19.196 307.93 19.734 309.951 20.2074L313.379 21.0467C316.059 21.6062 318.454 22.381 320.564 23.3709C322.717 24.3178 324.431 25.6305 325.705 27.3091C326.979 28.9446 327.616 31.0966 327.616 33.7651C327.616 36.4336 326.935 38.7578 325.573 40.7376C324.211 42.7175 322.277 44.2669 319.773 45.386C317.312 46.462 314.412 47 311.072 47Z" fill="#353431"/>
<path d="M336.138 46.0962V0.903846H341.675V20.9821H363.295V0.903846H368.831V46.0962H363.295V25.8887H341.675V46.0962H336.138Z" fill="#353431"/>
<path d="M396.137 47C390.644 47 386.249 45.4505 382.954 42.3516C379.702 39.2097 378.076 34.6474 378.076 28.6648V18.3352C378.076 12.3526 379.702 7.81181 382.954 4.71291C386.249 1.57097 390.644 0 396.137 0C401.673 0 406.068 1.57097 409.319 4.71291C412.615 7.81181 414.263 12.3526 414.263 18.3352V28.6648C414.263 34.6474 412.615 39.2097 409.319 42.3516C406.068 45.4505 401.673 47 396.137 47ZM396.137 42.158C400.135 42.158 403.233 40.9959 405.43 38.6717C407.628 36.3045 408.726 33.0334 408.726 28.8585V18.1415C408.726 13.9666 407.628 10.717 405.43 8.39286C403.233 6.02564 400.135 4.84203 396.137 4.84203C392.182 4.84203 389.106 6.02564 386.909 8.39286C384.711 10.717 383.613 13.9666 383.613 18.1415V28.8585C383.613 33.0334 384.711 36.3045 386.909 38.6717C389.106 40.9959 392.182 42.158 396.137 42.158Z" fill="#353431"/>
<path d="M427.717 46.0962L420.202 0.903846H425.739L432.265 42.6099H433.188L441.691 0.903846H451.578L460.015 42.6099H460.938L467.463 0.903846H473L465.486 46.0962H455.599L447.096 4.13187H446.173L437.67 46.0962H427.717Z" fill="#353431"/>
</svg>
